<?xml version="1.0" encoding="utf-8"?>
<svg xmlns="http://www.w3.org/2000/svg" viewBox="0 0 24 24" width="24px" height="24px"><title>square-rounded</title><path d="M 3.284 1.504 L 6.083 1.504 C 7.049 1.504 7.834 2.284 7.834 3.244 L 7.834 6.027 C 7.834 6.987 7.049 7.767 6.083 7.767 L 3.284 7.767 C 2.319 7.767 1.533 6.987 1.533 6.027 L 1.533 3.244 C 1.533 2.284 2.319 1.504 3.284 1.504 Z" style="stroke-width: 1; fill: rgb(5, 9, 188);"/><path d="M 10.598 1.504 L 13.397 1.504 C 14.364 1.504 15.148 2.284 15.148 3.244 L 15.148 6.027 C 15.148 6.987 14.364 7.767 13.397 7.767 L 10.598 7.767 C 9.632 7.767 8.847 6.987 8.847 6.027 L 8.847 3.244 C 8.847 2.284 9.632 1.504 10.598 1.504 Z" style="stroke-width: 1; fill: rgb(29, 78, 216);"/><path d="M 17.916 1.504 L 20.716 1.504 C 21.682 1.504 22.467 2.284 22.467 3.244 L 22.467 6.027 C 22.467 6.987 21.682 7.767 20.716 7.767 L 17.916 7.767 C 16.95 7.767 16.166 6.987 16.166 6.027 L 16.166 3.244 C 16.166 2.284 16.95 1.504 17.916 1.504 Z" style="stroke-width: 1; fill: rgb(4, 97, 255);"/><path d="M 3.284 8.869 L 6.083 8.869 C 7.049 8.869 7.834 9.649 7.834 10.609 L 7.834 13.392 C 7.834 14.352 7.049 15.132 6.083 15.132 L 3.284 15.132 C 2.317 15.132 1.533 14.352 1.533 13.392 L 1.533 10.609 C 1.533 9.649 2.317 8.869 3.284 8.869 Z" style="stroke-width: 1; fill: rgb(29, 78, 216);"/><path d="M 10.598 8.869 L 13.397 8.869 C 14.364 8.869 15.148 9.649 15.148 10.609 L 15.148 13.392 C 15.148 14.352 14.364 15.132 13.397 15.132 L 10.598 15.132 C 9.632 15.132 8.847 14.352 8.847 13.392 L 8.847 10.609 C 8.847 9.649 9.632 8.869 10.598 8.869 Z" style="stroke-width: 1; fill: rgb(4, 97, 255);"/><path d="M 17.916 8.869 L 20.716 8.869 C 21.682 8.869 22.467 9.649 22.467 10.609 L 22.467 13.392 C 22.467 14.352 21.682 15.132 20.716 15.132 L 17.916 15.132 C 16.95 15.132 16.166 14.352 16.166 13.392 L 16.166 10.609 C 16.166 9.649 16.95 8.869 17.916 8.869 Z" style="stroke-width: 1; fill: rgb(0, 147, 255);"/><path d="M 3.284 16.233 L 6.083 16.233 C 7.049 16.233 7.834 17.013 7.834 17.973 L 7.834 20.756 C 7.834 21.716 7.049 22.496 6.083 22.496 L 3.284 22.496 C 2.317 22.496 1.533 21.716 1.533 20.756 L 1.533 17.973 C 1.533 17.013 2.317 16.233 3.284 16.233 Z" style="stroke-width: 1; fill: rgb(4, 97, 255);"/><path d="M 10.598 16.233 L 13.397 16.233 C 14.364 16.233 15.148 17.013 15.148 17.973 L 15.148 20.756 C 15.148 21.716 14.364 22.496 13.397 22.496 L 10.598 22.496 C 9.632 22.496 8.847 21.716 8.847 20.756 L 8.847 17.973 C 8.847 17.013 9.632 16.233 10.598 16.233 Z" style="stroke-width: 1; fill: rgb(0, 147, 255);"/><path d="M 17.916 16.233 L 20.716 16.233 C 21.682 16.233 22.467 17.013 22.467 17.973 L 22.467 20.756 C 22.467 21.716 21.682 22.496 20.716 22.496 L 17.916 22.496 C 16.95 22.496 16.166 21.716 16.166 20.756 L 16.166 17.973 C 16.166 17.013 16.95 16.233 17.916 16.233 Z" style="stroke-width: 1; fill: rgba(47, 185, 255, 0.91);"/></svg>